PathFileType	4	(X/Y/Z)	HSS_walk3.trc
DataRate	CameraRate	NumFrames	NumMarkers	Units	OrigDataRate	OrigDataStartFrame	OrigNumFrames
120.0	120.0	6	44	mm	120.0	1	992
Frame#	Time		R.Shoulder		Offset		L.Shoulder		R.Elbow		R.Wrist.Radial		R.Wrist		R.Hand		L.Elbow		L.Wrist.Radial		L.Wrist		L.Hand		R.Hip		V.Sacral		L.PSIS		L.Hip		R.Thigh.Upper		R.Thigh.Front		R.Thigh.Rear		X.Shell.Lower.Thigh.Right		R.Knee.Lateral		R.Shank.Upper		R.Shank.Front		R.Shank.Rear		X.Shell.Lower.Shank.Right		R.Ankle.Lateral		R.Heel		R.Toe		L.Thigh.Upper		L.Thigh.Front		L.Thigh.Rear		X.Shell.Lower.Thigh.Left		L.Knee.Lateral		L.Shank.Upper		L.Shank.Front		L.Shank.Rear		X.Shell.Lower.Shank.Left		L.Ankle.Lateral		L.Heel		L.Toe		R.Troc		L.Troc		R.PSIS		L.ASIS		R.ASIS
			X1	Y1	Z1	X2	Y2	Z2	X3	Y3	Z3	X4	Y4	Z4	X5	Y5	Z5	X6	Y6	Z6	X7	Y7	Z7	X8	Y8	Z8	X9	Y9	Z9	X10	Y10	Z10	X11	Y11	Z11	X12	Y12	Z12	X13	Y13	Z13	X14	Y14	Z14	X15	Y15	Z15	X16	Y16	Z16	X17	Y17	Z17	X18	Y18	Z18	X19	Y19	Z19	X20	Y20	Z20	X21	Y21	Z21	X22	Y22	Z22	X23	Y23	Z23	X24	Y24	Z24	X25	Y25	Z25	X26	Y26	Z26	X27	Y27	Z27	X28	Y28	Z28	X29	Y29	Z29	X30	Y30	Z30	X31	Y31	Z31	X32	Y32	Z32	X33	Y33	Z33	X34	Y34	Z34	X35	Y35	Z35	X36	Y36	Z36	X37	Y37	Z37	X38	Y38	Z38	X39	Y39	Z39	X40	Y40	Z40	X41	Y41	Z41	X42	Y42	Z42	X43	Y43	Z43	X44	Y44	Z44

1	0.00000	-1866.02026	1476.90356	-22.35084	-1970.43066	1374.31433	-307.66132	-1864.68652	1488.07324	-395.89627	-1863.04346	1109.97119	17.14635	-1740.79224	895.06122	69.22359	-1705.32837	906.56140	5.72400	-1686.17822	826.92194	60.84239	-1858.00720	1123.07373	-444.84341	-1704.63086	919.20026	-415.86560	-1730.65442	920.08636	-483.46545	-1680.36975	850.29071	-466.34747	-1796.95081	1039.58606	-59.37078	-1914.46741	1021.51434	-209.97638	-1910.90796	1027.09900	-249.97255	-1792.62988	1036.52930	-356.03842	-1754.66138	695.33392	-24.87209	-1722.36450	658.46863	-42.03460	-1777.97815	657.16846	-15.60418	-1751.19727	624.34631	-34.47986	-1814.08545	517.71564	-49.24876	-1829.59021	368.09039	-2.58108	-1804.66650	324.18124	-27.75765	-1863.00085	332.72595	-13.25381	-1842.04761	292.13104	-23.80040	-1861.92407	69.93258	-72.63966	-1907.04614	32.28146	-120.89960	-1709.32666	33.01863	-73.06712	-1749.78906	691.52148	-373.43188	-1732.85620	642.17249	-348.76700	-1780.78638	656.59888	-387.05356	-1757.30249	621.06934	-372.93613	-1830.04919	507.72519	-351.92661	-1865.82727	305.72025	-388.48886	-1837.25012	282.53671	-367.92661	-1896.47705	267.31598	-373.74091	-1873.94666	236.48752	-374.46246	-1862.36682	72.04486	-323.62473	-1917.58740	34.37762	-277.16684	-1718.21802	32.49529	-312.45718	-1782.55334	881.79193	-21.93906	-1786.22632	891.51440	-393.02490	-1915.61902	1026.68152	-164.82378	-1727.51367	1000.04358	-315.34802	-1736.43481	1003.06543	-90.73450
2	0.00833	-1865.92554	1476.97693	-22.44844	-1970.33899	1374.35376	-307.76422	-1864.34949	1487.99658	-395.95099	-1863.07361	1110.04321	17.10979	-1740.86694	895.09637	69.22972	-1705.38062	906.62903	5.69833	-1686.31042	826.94891	60.86164	-1857.86218	1123.05994	-444.85342	-1704.25916	919.24390	-415.79465	-1730.50928	920.04541	-483.39816	-1680.27185	850.23096	-466.27423	-1796.85754	1039.65210	-59.36902	-1914.44592	1021.51196	-209.93614	-1910.90100	1027.10681	-249.90819	-1792.56177	1036.57373	-355.94806	-1754.64771	695.32544	-24.84591	-1722.35669	658.46594	-42.03279	-1777.95959	657.15076	-15.67255	-1751.15564	624.32959	-34.47798	-1814.05066	517.72614	-49.32544	-1829.57422	368.08392	-2.57289	-1804.70776	324.16400	-27.72879	-1862.99500	332.74588	-13.20690	-1842.01929	292.08591	-23.80309	-1861.93823	69.97440	-72.61259	-1907.06628	32.28699	-120.91750	-1709.32434	33.02615	-73.02962	-1749.75574	691.54974	-373.40265	-1732.82043	642.18964	-348.72455	-1780.77454	656.62109	-386.99716	-1757.30530	621.05072	-372.84915	-1830.01465	507.71005	-351.85532	-1865.81738	305.73126	-388.44186	-1837.23096	282.53140	-367.89520	-1896.47852	267.33856	-373.69064	-1873.99084	236.53085	-374.40994	-1862.34119	72.00786	-323.64011	-1917.59460	34.37404	-277.15170	-1718.22803	32.46777	-312.44604	-1782.54675	881.79468	-21.87587	-1786.19629	891.51880	-392.99167	-1915.61621	1026.69153	-164.78670	-1727.46741	1000.03534	-315.33344	-1736.23303	1003.14020	-90.70584
3	0.01667	-1865.79749	1477.05139	-22.53018	-1970.21790	1374.42554	-307.86908	-1864.17517	1488.02356	-396.10526	-1863.08350	1110.11230	17.11526	-1740.97571	895.14703	69.25304	-1705.44531	906.67188	5.72961	-1686.43201	826.98932	60.89461	-1857.66907	1123.02258	-444.88666	-1704.02844	919.13879	-415.66867	-1730.36670	919.97729	-483.32840	-1680.17273	850.18286	-466.17249	-1797.06189	1039.61621	-59.35028	-1914.44238	1021.51569	-209.87369	-1910.89868	1027.11865	-249.87430	-1792.55054	1036.54175	-355.91241	-1754.65918	695.33136	-24.76270	-1722.31726	658.46069	-41.95223	-1777.94568	657.18329	-15.59565	-1751.13013	624.33044	-34.47047	-1814.01953	517.70703	-49.23108	-1829.54016	368.09262	-2.54475	-1804.73059	324.12936	-27.86641	-1862.96899	332.71640	-13.27958	-1841.98083	292.09772	-23.78099	-1861.93127	69.95042	-72.66190	-1907.08215	32.29461	-120.92397	-1709.36670	33.07073	-73.00897	-1749.77441	691.56976	-373.36929	-1732.86731	642.20667	-348.70639	-1780.77380	656.62402	-386.92270	-1757.28125	621.08661	-372.83087	-1830.00330	507.73602	-351.82376	-1865.80347	305.71927	-388.39084	-1837.26868	282.57852	-367.90073	-1896.48010	267.31079	-373.62918	-1873.99646	236.52731	-374.38885	-1862.37744	72.05498	-323.60220	-1917.60571	34.37643	-277.13574	-1718.22546	32.47557	-312.45032	-1782.55359	881.79004	-21.82800	-1786.18616	891.53723	-392.90704	-1915.62073	1026.71594	-164.74068	-1727.44055	1000.00427	-315.32785	-1736.21240	1003.15186	-90.70565
4	0.02500	-1865.64819	1477.15930	-22.61054	-1970.06885	1374.49646	-307.97656	-1863.85474	1487.95020	-396.17340	-1863.09705	1110.20959	17.08726	-1741.04016	895.19745	69.24730	-1705.55164	906.67944	5.63557	-1686.57373	827.01129	60.90867	-1857.48267	1123.00757	-444.89581	-1703.73364	919.07605	-415.54260	-1730.23279	919.91937	-483.25897	-1680.02148	850.13782	-466.07849	-1796.92407	1039.66907	-59.29668	-1914.40356	1021.52808	-209.83716	-1910.90112	1027.12549	-249.80792	-1792.63831	1036.48645	-355.88605	-1754.62439	695.32214	-24.71906	-1722.28931	658.47919	-41.97129	-1777.91541	657.14941	-15.56564	-1751.09424	624.34991	-34.39277	-1813.97131	517.52417	-49.16644	-1829.47571	368.07114	-2.58302	-1804.71375	324.14822	-27.79340	-1862.94849	332.72028	-13.25330	-1841.92175	292.07858	-23.83770	-1861.92627	69.98159	-72.63135	-1907.06799	32.28985	-120.91090	-1709.38757	33.09615	-72.99770	-1749.77710	691.56738	-373.29837	-1732.88257	642.22168	-348.65063	-1780.76611	656.61035	-386.91440	-1757.28442	621.06982	-372.76004	-1830.00989	507.76682	-351.75702	-1865.82507	305.75479	-388.35925	-1837.27063	282.58630	-367.83997	-1896.48425	267.32150	-373.59229	-1874.06433	236.59949	-374.33777	-1862.38013	72.07079	-323.53699	-1917.59607	34.37415	-277.13202	-1718.24207	32.50392	-312.41922	-1782.55225	881.77252	-21.74783	-1786.19128	891.52679	-392.85413	-1915.63489	1026.71436	-164.68077	-1727.41077	999.99750	-315.23801	-1736.22961	1003.16107	-90.63084
5	0.03333	-1865.51746	1477.26685	-22.56096	-1969.87830	1374.56738	-308.08615	-1863.51099	1487.94348	-396.34549	-1863.10901	1110.33582	17.06862	-1741.12280	895.21985	69.23993	-1705.63452	906.71027	5.62099	-1686.69141	827.05084	60.92583	-1857.26855	1122.98669	-444.93744	-1703.52454	919.07684	-415.48123	-1730.03516	919.88635	-483.21048	-1679.88965	850.10266	-466.01486	-1797.12781	1039.70020	-59.14516	-1914.41479	1021.51874	-209.78024	-1910.88306	1027.12036	-249.73753	-1792.58582	1036.48450	-355.78284	-1754.59644	695.32642	-24.70085	-1722.26562	658.48682	-41.85383	-1777.89001	657.12921	-15.50750	-1751.07910	624.34863	-34.33366	-1813.93433	517.52112	-49.05997	-1829.41406	368.07666	-2.58346	-1804.68140	324.12555	-27.89228	-1862.87488	332.71634	-13.23274	-1841.86511	292.06445	-23.83893	-1861.91406	69.97433	-72.62791	-1907.07141	32.29241	-120.90486	-1709.41528	33.12602	-72.97700	-1749.77026	691.54547	-373.23734	-1732.86841	642.22644	-348.62747	-1780.76001	656.63446	-386.83002	-1757.27441	621.12445	-372.77176	-1830.00269	507.73593	-351.67035	-1865.83191	305.77249	-388.34445	-1837.28027	282.61090	-367.79865	-1896.47363	267.34869	-373.57162	-1874.11511	236.61026	-374.29373	-1862.36279	72.03423	-323.51797	-1917.59338	34.38362	-277.13831	-1718.21057	32.48864	-312.42447	-1782.53516	881.77484	-21.73771	-1786.16345	891.55121	-392.78555	-1915.64221	1026.74072	-164.61528	-1727.40613	1000.00024	-315.24963	-1736.23962	1003.14789	-90.64030
6	0.04167	-1865.34924	1477.34924	-22.65208	-1969.68542	1374.61047	-308.19830	-1863.02588	1487.90210	-396.32443	-1863.09631	1110.46436	17.05698	-1741.26257	895.26959	69.28051	-1705.73633	906.76288	5.70072	-1686.78955	827.08765	60.98520	-1857.06555	1122.96057	-444.97089	-1703.27698	918.95892	-415.40695	-1729.83081	919.83118	-483.16452	-1679.68433	850.07483	-465.93161	-1797.16724	1039.71594	-59.09881	-1914.37524	1021.53168	-209.70961	-1910.88708	1027.13940	-249.67839	-1792.58618	1036.47192	-355.73740	-1754.56921	695.30695	-24.64764	-1722.20654	658.47144	-41.85687	-1777.84778	657.07947	-15.42374	-1751.05176	624.33710	-34.28312	-1813.87915	517.50684	-49.00864	-1829.32654	368.05853	-2.51778	-1804.61218	324.12946	-27.94923	-1862.79126	332.71585	-13.14514	-1841.81494	292.05942	-23.79441	-1861.86975	69.95068	-72.60607	-1907.06726	32.28750	-120.91113	-1709.41638	33.15386	-72.98672	-1749.78015	691.56940	-373.20551	-1732.87817	642.20374	-348.49527	-1780.75793	656.63031	-386.84332	-1757.28589	621.11029	-372.70197	-1829.99756	507.77808	-351.65439	-1865.82703	305.75146	-388.27869	-1837.27319	282.61920	-367.78009	-1896.47815	267.32785	-373.52817	-1874.10144	236.62663	-374.21292	-1862.34839	72.04420	-323.54526	-1917.59973	34.37695	-277.10730	-1718.20410	32.48499	-312.42572	-1782.49927	881.76703	-21.67879	-1786.13855	891.53644	-392.73093	-1915.65161	1026.76514	-164.57103	-1727.35132	999.94244	-315.15387	-1736.12561	1003.16681	-90.57518
